<svg width="800" height="600" viewBox="0 0 800 600" fill="none" xmlns="http://www.w3.org/2000/svg">
  <rect width="800" height="600" fill="#1F2937"/>
  <rect x="24" y="24" width="752" height="552" rx="18" fill="#111827" stroke="#374151" stroke-width="2"/>
  <circle cx="400" cy="250" r="92" fill="#22D3EE" fill-opacity="0.22"/>
  <path d="M400 170C430 170 454 194 454 224C454 254 430 278 400 278C370 278 346 254 346 224C346 194 370 170 400 170Z" fill="#F9FAFB" fill-opacity="0.85"/>
  <path d="M278 390C278 332 325 285 383 285H417C475 285 522 332 522 390V424H278V390Z" fill="#F9FAFB" fill-opacity="0.85"/>
  <text x="400" y="490" text-anchor="middle" fill="#E5E7EB" font-family="Arial, sans-serif" font-size="34" font-weight="700">Besitzerin 2</text>
  <text x="400" y="530" text-anchor="middle" fill="#9CA3AF" font-family="Arial, sans-serif" font-size="20">Bildplatzhalter</text>
</svg>
